<?xml version="1.0" standalone="no"?>
<!DOCTYPE svg PUBLIC "-//W3C//DTD SVG 20010904//EN"
 "http://www.w3.org/TR/2001/REC-SVG-20010904/DTD/svg10.dtd">
<svg version="1.0" xmlns="http://www.w3.org/2000/svg"
 width="110.000000pt" height="110.000000pt" viewBox="0 0 110.000000 110.000000"
 preserveAspectRatio="xMidYMid meet">
<metadata>
Created by potrace 1.14, written by Peter Selinger 2001-2017
</metadata>
<g transform="translate(0.000000,110.000000) scale(0.100000,-0.100000)"
fill="#000000" stroke="none">
<path d="M217 1064 c-14 -8 -30 -28 -36 -46 -7 -22 -10 -185 -8 -491 l2 -459
28 -24 c28 -24 30 -24 250 -24 250 0 311 10 387 61 169 115 171 373 3 479 -25
16 -50 31 -55 32 -5 2 6 27 25 56 98 145 34 339 -132 403 -49 19 -78 22 -247
24 -143 1 -198 -2 -217 -11z m416 -167 c54 -41 69 -114 36 -182 -26 -54 -67
-68 -205 -72 l-124 -3 0 146 0 146 129 -4 c121 -3 130 -5 164 -31z m83 -426
c53 -30 75 -68 76 -135 2 -70 -24 -114 -82 -144 -40 -20 -58 -22 -207 -22
l-163 0 0 163 0 164 168 -2 c155 -1 170 -3 208 -24z"/>
</g>
</svg>
