<svg width="12" height="12" viewBox="0 0 12 12" fill="none" xmlns="http://www.w3.org/2000/svg">
<path d="M9.50015 9.99999H2.50015C2.36754 9.99999 2.24036 10.0527 2.1466 10.1464C2.05283 10.2402 2.00015 10.3674 2.00015 10.5C2.00015 10.6326 2.05283 10.7598 2.1466 10.8535C2.24036 10.9473 2.36754 11 2.50015 11H9.50015C9.63276 11 9.75993 10.9473 9.8537 10.8535C9.94747 10.7598 10.0001 10.6326 10.0001 10.5C10.0001 10.3674 9.94747 10.2402 9.8537 10.1464C9.75993 10.0527 9.63276 9.99999 9.50015 9.99999ZM2.50015 8.99999H2.54515L4.63015 8.80999C4.85855 8.78724 5.07217 8.68661 5.23515 8.52499L9.73515 4.02499C9.90981 3.84047 10.0042 3.59424 9.99764 3.34026C9.99108 3.08627 9.8841 2.84524 9.70015 2.66999L8.33015 1.29999C8.15134 1.13204 7.91704 1.03567 7.67181 1.02922C7.42658 1.02276 7.18754 1.10667 7.00015 1.26499L2.50015 5.76499C2.33853 5.92797 2.2379 6.14159 2.21515 6.36999L2.00015 8.45499C1.99341 8.52823 2.00292 8.60204 2.02798 8.67119C2.05304 8.74033 2.09305 8.80308 2.14515 8.85499C2.19187 8.90133 2.24728 8.938 2.3082 8.96288C2.36911 8.98776 2.43435 9.00037 2.50015 8.99999ZM7.63515 1.99999L9.00015 3.36499L8.00015 4.33999L6.66015 2.99999L7.63515 1.99999Z" fill="white"/>
</svg>
