<svg width="12" height="16" viewBox="0 0 12 16" fill="none" xmlns="http://www.w3.org/2000/svg">
<path d="M10.2379 2.73992C9.26683 1.06417 7.54208 0.0403906 5.62411 0.00126563C5.54223 -0.000421875 5.45983 -0.000421875 5.37792 0.00126563C3.45998 0.0403906 1.73523 1.06417 0.764169 2.73992C-0.228393 4.4528 -0.25555 6.5103 0.691513 8.24376L4.65911 15.5059C4.66089 15.5091 4.66267 15.5123 4.66451 15.5155C4.83908 15.8189 5.15179 16 5.50108 16C5.85033 16 6.16304 15.8189 6.33757 15.5155C6.33942 15.5123 6.3412 15.5091 6.34298 15.5059L10.3106 8.24376C11.2576 6.5103 11.2304 4.4528 10.2379 2.73992ZM5.50101 7.25002C4.26036 7.25002 3.25101 6.24067 3.25101 5.00002C3.25101 3.75936 4.26036 2.75002 5.50101 2.75002C6.74167 2.75002 7.75101 3.75936 7.75101 5.00002C7.75101 6.24067 6.7417 7.25002 5.50101 7.25002Z" fill="#555555"/>
</svg>
